PathFileType	4	(X/Y/Z)	D:\TRACE\spotREDO_2-26-24\spot_justBody_Motion_1_4-platform.trc
DataRate	CameraRate	NumFrames	NumMarkers	Units	OrigDataRate	OrigDataStartFrame	OrigNumFrames
100.00	100.00	      42	5	mm	100.00	6126	      7000
Frame#	Time	Left_Front			Right_Front			Left_Aft			Right_Aft			Post			
		X1	Y1	Z1	X2	Y2	Z2	X3	Y3	Z3	X4	Y4	Z4	X5	Y5	Z5	

6126	61.250	-681.53979	21.12511	-568.52002	733.11774	26.81172	-484.06366	-752.82233	-21.13883	649.56555	817.60425	-14.15422	652.85980	27.48405	664.96161	-948.57941	
6127	61.260	-680.59399	21.26296	-568.40350	734.18475	26.80975	-484.12750	-751.61804	-21.25830	649.72772	818.59277	-14.10912	652.97699	28.96059	665.25238	-947.99945	
6128	61.270	-679.72528	21.31116	-568.30731	735.18427	26.75834	-483.98224	-750.64624	-21.29636	650.02917	819.77960	-14.32834	653.13745	29.74397	665.57886	-947.95538	
6129	61.280	-678.66516	21.41772	-568.42737	735.82220	26.99053	-484.05872	-749.83795	-21.90532	649.71777	820.35059	-14.25378	653.07556	30.28211	665.81299	-948.05151	
6130	61.290	-677.96649	21.63777	-568.40112	736.99078	27.20258	-483.96573	-748.82635	-21.57758	649.78900	821.62762	-14.49373	653.24536	31.19859	665.86786	-947.99475	
6131	61.300	-676.87451	21.74679	-568.43585	737.95453	27.27788	-483.86203	-747.89465	-21.44985	649.90015	822.27594	-14.60963	653.26617	32.47582	666.03680	-947.83923	
6132	61.310	-675.94177	21.94848	-568.42963	738.86053	27.33095	-483.82407	-746.97412	-21.98455	649.85022	823.20020	-14.57822	653.39417	33.56620	666.42871	-947.56567	
6133	61.320	-675.12134	21.99175	-568.41644	739.66876	27.37295	-483.89172	-745.92456	-22.09168	649.96484	824.47968	-14.55424	653.49261	34.07032	666.57391	-947.37720	
6134	61.330	-674.29895	22.23720	-568.38245	740.40369	27.46864	-483.85974	-744.99585	-22.12349	649.90582	825.06824	-14.62111	653.38440	35.07435	666.55377	-947.19836	
6135	61.340	-673.27515	22.38011	-568.32794	741.89569	27.53508	-483.73926	-744.23566	-22.42483	650.04358	826.14337	-14.83315	653.21661	36.20449	666.74847	-947.07501	
6136	61.350	-672.50098	22.40733	-568.16083	742.43567	27.85895	-483.73755	-743.24902	-22.39950	650.11377	827.08575	-14.71814	653.13629	36.96052	667.01202	-946.99365	
6137	61.360	-671.43378	22.44205	-568.13300	743.14056	27.89398	-483.92969	-742.34076	-22.39942	650.12323	828.03094	-15.10455	653.21240	37.56266	667.05200	-946.91034	
6138	61.370	-670.74713	22.63770	-568.08191	744.37494	27.94346	-483.68106	-741.57574	-22.55832	650.18024	828.58954	-15.05356	653.32013	38.74294	667.11188	-946.76672	
6139	61.380	-669.85522	22.68397	-568.12256	744.98303	27.82480	-483.70636	-740.44635	-22.55596	650.32666	829.53632	-15.25158	653.26825	39.68851	667.26801	-946.62256	
6140	61.390	-669.00293	22.85635	-567.98669	745.85846	28.00741	-483.75925	-739.63629	-22.80189	650.12439	830.43762	-15.39611	653.13599	40.34461	667.52106	-946.30762	
6141	61.400	-668.15302	22.82866	-568.01031	746.88483	28.33112	-483.78891	-738.90283	-22.69253	649.96667	831.45813	-15.47315	653.08289	41.11671	667.62067	-946.50690	
6142	61.410	-667.17700	22.84689	-567.97534	747.70605	28.30260	-483.64294	-737.99005	-22.54299	650.19623	832.13440	-15.49233	653.05939	42.24726	667.68097	-946.33002	
6143	61.420	-666.44885	22.87106	-568.08972	748.53107	28.40789	-483.74170	-737.24377	-22.93023	650.06482	833.07330	-15.70666	653.12836	43.04310	667.65869	-946.16290	
6144	61.430	-665.47986	22.89993	-568.00793	749.26831	28.28214	-483.66232	-736.50189	-23.00255	649.95416	833.94952	-15.67560	653.30145	43.70372	667.71918	-946.16528	
6145	61.440	-664.67511	22.67134	-568.04205	750.18445	28.17574	-483.56406	-735.61896	-22.59084	650.30499	834.88184	-15.64324	653.51465	44.46625	667.98352	-946.06427	
6146	61.450	-663.73370	22.89071	-568.10034	750.99292	28.27197	-483.64679	-734.73859	-23.10001	650.26550	835.56757	-15.42739	653.49023	45.46887	668.00714	-946.04767	
6147	61.460	-662.84821	23.01655	-568.03369	751.69183	28.60901	-483.70648	-733.87549	-23.20197	650.24994	836.53925	-15.69880	653.50940	46.34758	668.04858	-945.93878	
6148	61.470	-662.24683	22.97493	-567.97241	752.41248	28.66593	-483.67105	-733.05328	-23.11772	650.21674	837.05334	-15.81331	653.48230	46.93686	668.08618	-946.05957	
6149	61.480	-661.58691	23.01388	-567.83215	753.48077	28.55249	-483.45023	-732.28058	-23.06676	650.15729	837.82776	-15.78216	653.49841	47.78616	668.25732	-945.93439	
6150	61.490	-660.70728	23.15099	-567.97638	754.24524	28.65811	-483.52472	-731.69061	-23.09659	650.15875	838.60248	-15.75556	653.67584	48.71947	668.21521	-945.88739	
6151	61.500	-659.95258	23.21006	-568.03943	754.65228	28.79694	-483.50681	-731.03467	-23.09721	650.14099	839.48291	-15.91605	653.70551	49.55661	668.36945	-945.76038	
6152	61.510	-659.22491	23.24900	-567.90979	755.35394	28.65969	-483.59705	-730.08246	-23.16153	650.13171	840.19696	-15.70486	653.64722	49.89616	668.46429	-945.81549	
6153	61.520	-658.54419	23.15041	-567.90735	756.45258	28.73115	-483.35321	-729.18298	-23.28228	650.13062	840.79987	-15.54597	653.51721	50.56937	668.45734	-945.66205	
6154	61.530	-657.80273	23.31346	-567.91943	757.10089	28.77050	-483.33792	-728.71460	-23.43458	650.21991	841.47363	-15.78106	653.42981	51.41343	668.37628	-945.55249	
6155	61.540	-657.09747	23.41488	-567.95673	757.64325	28.87005	-483.50983	-728.12286	-23.30058	650.22760	842.29089	-15.90710	653.48596	52.23796	668.36609	-945.30176	
6156	61.550	-656.57166	23.38465	-567.94525	758.42993	28.83084	-483.60187	-727.23126	-23.25899	650.19586	842.96259	-16.08905	653.51453	53.00357	668.33282	-945.13190	
6157	61.560	-655.93262	23.38886	-568.01923	758.89490	28.83151	-483.62729	-726.51294	-23.25842	650.25775	843.74438	-15.76385	653.61951	53.74151	668.34058	-945.25208	
6158	61.570	-655.15381	23.39577	-567.97754	759.50653	28.76451	-483.45328	-726.01593	-23.18046	650.24158	844.10077	-15.65491	653.53809	54.26997	668.24573	-945.53058	
6159	61.580	-654.43896	23.20104	-567.98651	760.28986	28.47441	-483.48700	-725.53186	-23.12207	650.22211	844.98956	-15.64176	653.44177	54.83406	668.18335	-945.54999	
6160	61.590	-653.94659	23.07115	-567.96454	760.95959	28.43149	-483.65457	-724.94598	-22.90135	650.05951	845.44086	-15.66482	653.47815	55.49820	668.09943	-945.81573	
6161	61.600	-653.36279	23.00578	-567.90094	761.27435	28.46381	-483.77127	-724.33240	-22.74981	650.16370	846.05157	-15.54822	653.48621	56.02431	668.06201	-945.88177	
6162	61.610	-652.83807	22.89987	-567.97168	761.83545	28.41441	-483.79422	-723.54510	-22.84240	650.04578	846.85895	-15.58231	653.41699	56.72895	668.02374	-946.24237	
6163	61.620	-652.26239	22.92826	-568.04755	762.52527	28.39578	-483.58044	-723.20624	-22.86562	650.03400	847.27832	-15.47739	653.30707	57.12251	668.04681	-946.38226	
6164	61.630	-651.54913	22.75212	-568.10077	763.11011	28.40639	-483.81100	-722.68988	-22.83892	650.08099	847.63690	-15.27635	653.21265	57.46374	667.93445	-946.49213	
6165	61.640	-650.89740	22.73733	-568.05090	763.68042	28.39785	-483.76242	-721.98706	-22.69176	650.12781	848.27393	-15.30627	653.17871	58.16916	667.81171	-946.54565	
6166	61.650	-650.49689	22.71022	-568.10364	764.15173	28.16809	-483.66608	-721.65070	-22.67404	650.06561	848.72339	-15.32794	653.09619	58.57302	667.71777	-946.59082	
6167	61.660	-650.26587	22.64368	-568.13934	764.51630	28.19356	-483.68997	-721.13519	-22.71793	650.08228	849.08301	-15.09702	653.09186	58.91776	667.58093	-946.58813	
